<?xml version="1.0" encoding="UTF-8"?>
<svg id="Layer_2" xmlns="http://www.w3.org/2000/svg" viewBox="0 0 449.03 183.6">
  <defs>
    <style>
      .cls-1 {
        fill: #fff;
      }

      .cls-2 {
        fill: #68cce8;
      }
    </style>
  </defs>
  <g id="Layer_1-2" data-name="Layer_1">
    <g>
      <g>
        <path class="cls-1" d="M0,151.03c0-3.3,1.16-6.11,3.49-8.44,2.32-2.32,5.14-3.49,8.44-3.49h46.64c3.3,0,6.11,1.16,8.44,3.49,2.33,2.33,3.49,5.14,3.49,8.44v10.86c0,3.3-1.16,6.11-3.49,8.44s-5.14,3.49-8.44,3.49H7.61v9.39H0v-32.18ZM7.61,166.21h50.96c1.19,0,2.21-.42,3.05-1.27.84-.85,1.27-1.86,1.27-3.05v-10.86c0-1.19-.42-2.2-1.27-3.05-.85-.84-1.86-1.27-3.05-1.27H11.93c-1.19,0-2.21.43-3.05,1.27-.85.85-1.27,1.86-1.27,3.05v15.18Z"/>
        <path class="cls-1" d="M143.14,157.77v-6.78c0-1.19-.42-2.2-1.27-3.05-.85-.84-1.86-1.27-3.05-1.27h-50.45c-1.19,0-2.21.42-3.05,1.27-.85.85-1.27,1.86-1.27,3.05v.12h-7.61v-.12c0-3.3,1.16-6.11,3.49-8.44,2.22-2.21,4.88-3.38,7.97-3.49h51.4c3.09.1,5.74,1.27,7.97,3.49,2.32,2.33,3.49,5.14,3.49,8.44v32.22h-63.6c-3.3,0-6.12-1.16-8.44-3.49-2.33-2.33-3.49-5.14-3.49-8.44v-1.59c0-3.27,1.16-6.08,3.49-8.4,2.33-2.35,5.14-3.53,8.44-3.53h56ZM143.14,175.6v-10.22h-56c-1.19,0-2.21.42-3.05,1.27-.85.84-1.27,1.86-1.27,3.05v1.59c0,1.19.42,2.21,1.27,3.05s1.86,1.27,3.05,1.27h56Z"/>
        <path class="cls-1" d="M208.13,167.63l5.27,6.26,27.9-33.05,2.46-2.93,5.83,4.91-2.46,2.89-30.79,36.54c-.77.9-1.75,1.35-2.93,1.35s-2.13-.45-2.89-1.35l-7.37-8.72-7.37,8.72c-.77.9-1.73,1.35-2.89,1.35s-2.17-.45-2.93-1.35l-30.79-36.54-2.46-2.89,5.82-4.91,2.46,2.93,27.9,33.05,5.27-6.26-18.47-21.91-2.46-2.89,5.83-4.91,2.46,2.93,17.63,20.88,17.63-20.88,2.46-2.93,5.82,4.91-2.45,2.89-18.47,21.91Z"/>
        <path class="cls-1" d="M322.22,157.77v-6.78c0-1.19-.42-2.2-1.27-3.05-.85-.84-1.86-1.27-3.05-1.27h-50.45c-1.19,0-2.21.42-3.05,1.27-.85.85-1.27,1.86-1.27,3.05v.12h-7.61v-.12c0-3.3,1.16-6.11,3.49-8.44,2.22-2.21,4.87-3.38,7.96-3.49h51.4c3.09.1,5.75,1.27,7.97,3.49,2.33,2.33,3.49,5.14,3.49,8.44v32.22h-63.61c-3.3,0-6.12-1.16-8.44-3.49-2.32-2.33-3.49-5.14-3.49-8.44v-1.59c0-3.27,1.16-6.08,3.49-8.4,2.33-2.35,5.14-3.53,8.44-3.53h56ZM322.22,175.6v-10.22h-56c-1.19,0-2.21.42-3.05,1.27-.85.84-1.27,1.86-1.27,3.05v1.59c0,1.19.42,2.21,1.27,3.05.84.85,1.86,1.27,3.05,1.27h56Z"/>
      </g>
      <g>
        <path class="cls-2" d="M377.11,183.6h-26.36v-84.26h26.36v84.26Z"/>
        <path class="cls-2" d="M404.92,183.6v-63.99h-17.83v-20.27h61.94v20.27h-17.75v63.99h-26.36Z"/>
      </g>
      <path class="cls-2" d="M310.22,79.54c-7.19,0-13.45,3.93-16.79,9.75l-39.23-13.62c.14-.74.22-1.5.22-2.28,0-6.73-5.45-12.18-12.18-12.18s-12.18,5.45-12.18,12.18c0,2.66.86,5.1,2.3,7.1l-4.56,4.33-27.65-10.82c.87-1.68,1.37-3.58,1.37-5.6,0-1.4-.25-2.75-.68-4l19.35-13.37c1.4,1.02,3.11,1.64,4.97,1.64,4.66,0,8.43-3.77,8.43-8.43,0-.78-.14-1.52-.34-2.24l11.27-7.79c1.67,1.63,3.94,2.64,6.45,2.64,3,0,5.64-1.45,7.33-3.66l17.2,6.46c-.01.21-.06.42-.06.64,0,4.08,3.31,7.39,7.39,7.39s7.39-3.31,7.39-7.39-3.31-7.4-7.39-7.4c-2.49,0-4.68,1.24-6.02,3.13l-16.83-6.33c.16-.68.26-1.38.26-2.11,0-1.32-.28-2.56-.78-3.69l15.31-10.58c1.08.65,2.33,1.04,3.68,1.04,3.97,0,7.18-3.21,7.18-7.18s-3.21-7.18-7.18-7.18-7.17,3.21-7.17,7.18c0,1.19.32,2.3.83,3.29l-14.91,10.3c-1.65-1.51-3.82-2.45-6.23-2.45-5.12,0-9.26,4.15-9.26,9.27,0,1.21.24,2.36.67,3.42l-11,7.6c-1.54-1.71-3.75-2.79-6.23-2.79-3.05,0-5.7,1.63-7.18,4.06l-9.24-3.18c.17-.79.27-1.61.27-2.45,0-1.53-.31-2.99-.86-4.32l10.46-5.44c1.31,1.44,3.18,2.36,5.29,2.36,3.97,0,7.18-3.21,7.18-7.18s-3.21-7.18-7.18-7.18-7.18,3.21-7.18,7.18c0,.47.06.93.14,1.38l-10.78,5.61c-2.07-2.3-5.07-3.76-8.41-3.76-4.52,0-8.41,2.65-10.23,6.47l-10.66-3.66c.02-.25.08-.48.08-.73,0-5.35-4.33-9.68-9.68-9.68-3.37,0-6.33,1.73-8.07,4.34l-12.68-4.35c.07-.41.12-.82.12-1.24,0-4.08-3.31-7.39-7.39-7.39s-7.39,3.31-7.39,7.39,3.31,7.39,7.39,7.39c2.26,0,4.26-1.04,5.61-2.63l12.89,4.43c-.1.57-.18,1.15-.18,1.75,0,5.35,4.33,9.68,9.68,9.68,3.73,0,6.93-2.14,8.55-5.23l10.67,3.66c-.04.38-.06.76-.06,1.15,0,.87.11,1.72.29,2.53l-23.19,12.06c-2.21-3.09-5.82-5.11-9.91-5.11-6.72,0-12.18,5.45-12.18,12.18,0,1.42.26,2.79.71,4.05l-32.87,17.1c-2.61-4.61-7.55-7.72-13.23-7.72-8.39,0-15.2,6.81-15.2,15.2s6.8,15.2,15.2,15.2,15.2-6.81,15.2-15.2c0-1.35-.19-2.65-.52-3.89l33.26-17.3c2.23,2.88,5.7,4.74,9.62,4.74,6.73,0,12.18-5.45,12.18-12.18,0-1.26-.19-2.47-.55-3.62l22.96-11.94c2.02,3.15,5.54,5.24,9.56,5.24s7.59-2.13,9.6-5.32l9.52,3.27c-.01.23-.07.46-.07.7,0,1.39.36,2.67.96,3.83l-18.69,12.91c-2.23-2.89-5.71-4.77-9.65-4.77-6.73,0-12.18,5.45-12.18,12.18s5.45,12.18,12.18,12.18c3.26,0,6.21-1.28,8.4-3.37l26.96,10.56-9.78,9.29c-3.01-2.36-6.79-3.78-10.9-3.78-9.78,0-17.7,7.92-17.7,17.71s7.92,17.69,17.7,17.69,17.7-7.92,17.7-17.69c0-4.27-1.51-8.18-4.03-11.24l17.37-16.51c2.01,1.47,4.48,2.34,7.16,2.34,4.59,0,8.57-2.53,10.65-6.27l38.96,13.52c-.63,1.92-.99,3.96-.99,6.08,0,10.7,8.66,19.36,19.36,19.36s19.37-8.67,19.37-19.36-8.67-19.37-19.37-19.37Z"/>
    </g>
  </g>
</svg>